<svg height="427.616927" viewBox="0 0 400 427.6169265" width="400" xmlns="http://www.w3.org/2000/svg"><path d="m207.595 12.584c-.028 6.859-.13 12.271-.227 12.026-.096-.245-.365-2.249-.596-4.454-.421-4.008-.421-4.009-.571-2.349-.082.913-.332 2.516-.554 3.563l-.405 1.904-.154-1.002c-.086-.552-.163-2.255-.173-3.786-.01-1.532-.136-3.185-.281-3.675l-.263-.891-.125.891c-.07.49-.036 2.678.075 4.863.147 2.897.129 4.373-.065 5.456-.833 4.636-1.115 38.319-.399 47.587.464 6.013 1.284 13.163 1.941 16.927.257 1.47.524 2.998.593 3.396.098.561.237.724.619.724.271 0 1.053.193 1.738.428 1.45.499 2.117.396 2.409-.371.306-.806.722-.351 1.439 1.574 1.744 4.683 3.244 6.392 5.602 6.384 1.972-.007 2.261-.511 1.392-2.425-.384-.846-.402-1.029-.133-1.336.172-.196.385-.607.473-.913.289-1.002.77-1.559 1.345-1.559 1.052 0 .652-5.887-.57-8.389-.618-1.267-1.563-4.378-3.032-9.986-.623-2.377-.789-5.974-.339-7.349l.218-.668.293.724c.303.748.789.952.995.417.219-.572-1.177-6.718-1.505-6.623-1.342.389-1.299.434-1.299-1.361 0-5.454-1.154-13.338-4.342-29.683-1.663-8.524-2.8-15.229-3.21-18.931-.123-1.102-.292-2.606-.376-3.341s-.223-3.34-.307-5.79c-.118-3.408-.166-1.524-.206 8.018m79.251 15.392c-.137.354-.452 1.182-.701 1.841s-1.326 2.363-2.394 3.787c-4.195 5.593-7.522 11.647-13.047 23.746-1.678 3.674-3.83 8.237-4.782 10.138s-2.032 4.306-2.4 5.345c-.369 1.039-1.77 4.695-3.114 8.125-3.584 9.144-5.04 13.841-5.731 18.485-.336 2.26-.456 6.348-.187 6.348.787 0 4.948-3.182 8.05-6.153l2.294-2.199 1.339-3.564c3.393-9.034 6.154-17.577 11.658-36.08 4.16-13.985 5.902-19.617 8.018-25.931.797-2.38 1.404-4.373 1.348-4.429-.056-.057-.214.187-.351.541m-162.124 4.949c0 .143 1.096 3.893 2.437 8.334 3.745 12.406 6.142 21.087 5.967 21.611-.043.131-.724-1.332-1.513-3.25s-1.507-3.489-1.595-3.491-.117.121-.065.274c.053.153.993 3.035 2.09 6.403 6.968 21.403 11.827 30.851 20.572 39.998l2.054 2.148 1.302-.136c3.946-.412 5.579-2.976 4.525-7.104-.322-1.261-.585-2.615-.585-3.009 0-.842-.13-.881-.81-.243-.76.715-.833.633-4.455-5.073-13.564-21.365-21.909-36.952-28.183-52.639-1.568-3.92-1.741-4.3-1.741-3.823m230.623 46.93c-10.807 4.384-19.049 10.007-37.194 25.378-14.84 12.571-21.402 17.647-23.863 18.457-.594.196-2.133.565-3.419.821-3.541.704-5.401 1.756-6.372 3.607-.234.446-.491.613-.944.613-1.65 0-3.978 1.247-4.61 2.47l-.345.666 1.13-.15c1.445-.192 1.758.077 2.918 2.507 1.232 2.581 1.175 2.735-1.71 4.635-2.098 1.382-2.27 1.676-.981 1.676.833 0 .891.041.891.639 0 .352.207 1.107.459 1.677.438.99.424 1.915-.028 1.915-.114 0-.208.1-.208.223 0 .325 2.908.273 5.154-.092 2.721-.441 5.24-1.251 10.102-3.249 2.328-.957 5.153-2.06 6.278-2.452l2.047-.712 1.276-2.149c9.421-15.853 22.974-29.33 49.642-49.365 8.889-6.678 7.972-5.868 7.657-6.772-.608-1.745-4.052-1.895-7.88-.343m-295.657 22.47c0 .6 9.98 11.997 11.611 13.26 3.375 2.612 6.318 5.692 7.667 8.023.107.184-.404-.151-1.135-.743-4.13-3.351-4.969-3.97-5.838-4.301-2.246-.858-.998.746 3.954 5.08 2.831 2.478 4.115 4.546 2.611 4.207-1.155-.261-1.678-.621-3.747-2.581-1.069-1.014-2.153-1.909-2.409-1.99-.543-.172-.588-.406-.15-.769.215-.178.36-.187.458-.027.18.29.564.306.564.024 0-.254-5.844-4.266-5.995-4.115-.059.059.849 1.081 2.017 2.271 2.473 2.521 4.734 5.037 9.646 10.739 12.177 14.134 18.046 19.352 26.069 23.181 2.409 1.15 7.14 2.849 7.322 2.63.524-.633 1.43-5.821 1.138-6.519-1-2.394-.264-3.443 2.899-4.132 4.838-1.055 5.272-3.8.828-5.242-.647-.21-1.486-.642-1.865-.961l-.688-.579.497-.403c.312-.253.864-.402 1.482-.402 1.3 0 1.389-.329.511-1.884-.9-1.596-1.571-2.074-2.445-1.744-.835.315-1.295-.178-1.653-1.77l-.264-1.173-2.278-.063c-1.253-.035-2.777.027-3.387.138-3.757.683-11.605-3.763-24.434-13.842-4.942-3.882-9.256-7.103-10.474-7.821-.182-.106-.489.008-.797.298l-.502.471-1.419-.916c-1.991-1.288-3.45-2.503-6.843-5.699-1.623-1.529-2.951-2.72-2.951-2.646m146.994 3.042c-8.877.53-16.857 2.467-22.718 5.516-.918.478-2.071 1.076-2.561 1.329s-1.562.61-2.383.794c-4.786 1.071-8.139 3.242-15.88 10.28-5.122 4.657-7.681 6.575-10.927 8.192l-1.962.977.932.617c1.13.748 1.138.825.162 1.569-1.001.763-2.346.963-2.881.429-.372-.373-.452-.33-1.71.915-1.556 1.54-1.557 1.541-.494 1.892l.825.273-.761.635c-.584.487-.666.636-.354.636.224 0 .75-.301 1.169-.668 1.448-1.272 1.809-.561.623 1.226-1.167 1.759-3.505 3.451-4.768 3.451-.44 0-1.884 1.996-2.263 3.128-.447 1.337-2.233 2.869-3.001 2.574-.512-.196-.362-.544.463-1.079.799-.517 1.066-.994.418-.745-.248.095-.638-.157-1.225-.793-1.068-1.157-1.071-1.303-.025-1.306 1.523-.004 2.466-.266 3.214-.893.808-.678.746-1.15-.076-.575-.647.454-1.536.454-2.589 0-.455-.196-1.368-.368-2.029-.383l-1.201-.026-1.731 1.825c-2.083 2.194-3.668 4.523-6.555 9.628-1.194 2.111-2.858 4.753-3.7 5.872-1.347 1.791-1.572 2.233-1.885 3.706-.735 3.454-1.101 4.011-2.638 4.011h-.965l-1.024 2.295c-2.011 4.506-3.947 10.697-3.489 11.156.458.457.195 2.026-.873 5.213-.966 2.884-1.165 3.817-1.673 7.84-.317 2.511-.868 6.82-1.226 9.576-2.283 17.607-1.983 27.668 1.098 36.749.353 1.041.7 2.468.77 3.172.07.703.574 2.608 1.12 4.233 1.252 3.73 1.649 7.517.788 7.517-.153 0-1.601-3.486-2.535-6.101-.309-.866-.352-.143-.13 2.195.203 2.151.356 2.708 1.424 5.217.658 1.545 1.768 4.212 2.466 5.927 8.11 19.925 12.951 26.758 22.715 32.057.857.465 1.911 1.082 2.341 1.37s1.764.924 2.966 1.413c2.724 1.108 3.481 1.564 5.174 3.119 8.228 7.558 32.983 13.714 47.648 11.851 1.747-.222 1.731-.225-.806-.115-2.745.118-2.869.075-2.869-.997 0-.333 3.537-1.803 4.005-1.664 2.52.748 11.241.499 21.051-.6 3.307-.37 7.567-.723 9.465-.783 7.314-.232 10.534-1.069 24.611-6.397 3.062-1.159 6.62-2.431 7.906-2.826 7.356-2.261 20.786-12.697 28.966-22.508 13.904-16.676 20.435-38.169 18.714-61.581-2.8-38.078-32.084-72.491-67.168-78.931-23.678-4.347-43.856 2.523-62.172 21.168-39.281 39.987-24.667 101.493 26.055 109.655 8.239 1.326 18.252.662 33.032-2.19 3.437-.663 6.877-3.01 11.206-7.646 5.86-6.275 12.86-18.505 13.607-23.774.121-.85.587-3.608 1.035-6.128 1.078-6.05 1.217-12.755.324-15.598-.461-1.468-.504-1.913-.368-3.816.406-5.667-2.972-18.071-5.92-21.745-7.817-9.737-21.782-17.028-29.939-15.63-1.225.209-4.144.696-6.487 1.08-12.059 1.978-17.021 5.047-19.13 11.832-.477 1.536 1.494 24.032 2.37 27.045 1.665 5.729 6.522 10.24 14.852 13.793 1.67.713 1.898.759 2.339.473.268-.173 1.322-.428 2.34-.566 2.922-.395 3.382-.68 3.382-2.098v-.912l-2.394-.006-2.394-.005-3.564-1.395c-1.96-.767-3.764-1.478-4.009-1.581-.835-.348-3.194-2.256-4.341-3.511-3.475-3.803-4.863-8.403-5.679-18.826-.199-2.537-.438-5.326-.531-6.197l-.169-1.585 1.017-.9c5.04-4.458 10.964-6.307 22.019-6.871l4.298-.219 2.718 1.324c7.524 3.665 8.9 5.389 10.605 13.296 5.478 25.4 4.86 34.637-3.074 45.965-10.962 15.651-46.615 17.027-62.725 2.42-12.531-11.363-17.823-32.939-12.665-51.641 3.19-11.567 6.785-18.117 15.185-27.666 14.338-16.298 33.977-24.024 52.607-20.695 1.409.252 3.764.665 5.234.918 19.806 3.408 39.165 20.734 47.168 42.216 4.457 11.963 3.96 32.122-1.208 48.991-5.605 18.295-17.311 36.309-28.785 44.299-5.391 3.754-18.017 10.378-19.783 10.378-2.394 0-6.054 1.024-11.219 3.137-6.061 2.48-5.922 2.444-8.699 2.285-2.969-.17-5.356.185-10.993 1.636-6.868 1.768-10.743 2.22-13.611 1.586-.811-.18-4.159-.272-10.331-.285-10.138-.022-10.87-.11-13.947-1.673-.907-.462-1.652-.674-2.374-.677-2.038-.01-3.118-.838-5.798-4.45-1.316-1.774-4.378-3.785-3.912-2.57.422 1.098-1.644.479-4.214-1.264-1.565-1.06-2.599-1.511-3.463-1.511-.49 0-.803-.205-1.277-.835-.346-.46-1.496-1.739-2.556-2.843-1.061-1.104-2.153-2.447-2.426-2.983-.274-.537-1.151-1.738-1.948-2.67-4.891-5.711-8.337-12.655-10.512-21.181-1.277-5.002-1.97-6.604-3.083-7.127-.568-.267-.679-.424-.551-.78.76-2.124-1.185-9.312-2.485-9.179-.988.1-1.828-2.674-1.261-4.165.178-.468.139-.608-.222-.802-.63-.337-.565-.85.092-.724.292.056.601-.012.687-.151.468-.757-.13-4.144-.693-3.928-1.117.428-1.223-4.163-.185-8 .61-2.253.835-3.631 1.014-6.218.272-3.911.713-6.205 2.208-11.488 1.866-6.594 2.076-7.645 2.117-10.579.057-4.086.681-5.765 2.147-5.782.606-.008.915-.429 4.624-6.302l3.975-6.293-.34-.945c-.515-1.435-.215-2.733 1.305-5.638 1.241-2.371 1.818-3.924.897-2.413-.231.379-.874 1.061-1.43 1.516-1.213.994-1.715 1.716-1.777 2.554-.036.484-.138.602-.448.521-.567-.147-1.237.658-1.621 1.949-.383 1.293-1.818 3.194-2.787 3.695-.908.47-.871.354 1.372-4.309 6.491-13.492 15.685-24.76 29.707-36.408l3.107-2.581 1.044.124c2.163.256 8.994-2.247 9.004-3.299.008-.892 1.294-1.549 3.894-1.989.796-.134 1.662-.383 1.924-.551.555-.358.749-.232.749.487 0 .648-.069.654 1.841-.159 1.946-.828 1.813-.677 1.422-1.614-.825-1.974 3.121-5.286 7.597-6.376.948-.23 2.676-.87 3.839-1.421 11.175-5.293 24.419-6.208 41.102-2.841 4.546.918 21.498 5.227 26.911 6.84 2.146.641-7.087-4.866-13.787-8.222-11.419-5.719-20.824-8.065-32.344-8.069-3.46-.001-6.292-.077-6.292-.168 0-.092-.225-.153-.501-.135-.275.018-1.854.114-3.507.212m-63.574 33.887c.23.747.283.752.936.099l.601-.6h-.845c-.774 0-.833.042-.692.501m234.62 19.782c-7.731 1.917-16.995 3.021-33.519 3.994-18.472 1.087-19.673 1.216-21.989 2.371-5.052 2.518-10.376 4.487-13.556 5.012-3.1.512-2.825 2.741.382 3.1 3.565.4 4.08.887 2.636 2.493-.974 1.082-2.238 3.444-2.473 4.618-.162.813.404 1.196 2.484 1.678.855.199 1.661.449 1.792.557.296.246 5.145-.424 9.727-1.344 10.061-2.019 19.465-5.094 36.922-12.075 11.689-4.675 15.68-6.212 21.021-8.097 5.368-1.895 4.883-1.639 4.533-2.393l-.276-.595-2.561.023c-2.013.018-3.11.159-5.123.658m-377.606 14.647c.232.204 1.224.632 11.793 5.09 11.988 5.056 17.504 6.97 24.945 8.653 2.88.651 1.897.697-3.956.184-2.781-.244-4.494-.3-5.121-.168l-.942.199 3.227 1.258c8.156 3.179 16.941 5.291 29.058 6.983l5.562.777 9.582-.002c9.697-.002 24.768-.329 26.147-.567l.751-.129-.616-.643c-.735-.767-.547-1.223 1.026-2.487 2.414-1.94 1.586-3.327-3.548-5.945-3.451-1.759-3.67-2.151-2.607-4.675.668-1.588.552-2.141-.565-2.711-1.09-.556-1.094-.555-1.094.205 0 .996-.446 1.196-2.744 1.228-2.248.032-3.071.347-3.529 1.353-.509 1.117-13.806 1.245-28.026.268-4.716-.323-11.08-.65-14.142-.724l-5.568-.136-19.685-4.099c-20.256-4.217-20.305-4.227-19.948-3.912m317.857 47.275c-2.066.902-4.171 2.269-4.171 2.709 0 1.528 7.678 7.682 12.584 10.087 9.406 4.611 17.169 5.561 43.541 5.33 20.686-.181 22.397-.076 26.927 1.654 3.382 1.292 3.573 1.291 2.265-.018-1.242-1.242-1.649-2.059-1.478-2.971.312-1.664-7.44-6.083-14.017-7.991-6.075-1.763-12.195-2.504-27.839-3.369-12.208-.676-15.148-1.123-21.938-3.335-9.095-2.964-12.772-3.449-15.874-2.096m-212.411 5.879c0 .743.087 1.003.334 1.003s.334-.26.334-1.003c0-.742-.087-1.002-.334-1.002s-.334.26-.334 1.002m-10.653 10.711c-1.1.666-3.096.77-5.947.31-3.587-.578-5.579-.288-6.769.985-.296.318-.732.578-.967.578-1.848 0-5.456 1.803-10.074 5.036-3.112 2.178-5.979 3.831-7.203 4.151-.395.103-.487.242-.382.573.328 1.032-2.181 2.593-8.089 5.034-2.744 1.134-5.509 2.471-7.348 3.555-3.31 1.949-4.925 2.668-6.713 2.988-1.127.202-1.183.193-.721-.118.893-.602.591-.79-1.003-.623-2.634.276-3.446.873-2.232 1.641.852.54.794.573-1.792 1.02-2.148.371-2.936.794-2.936 1.575 0 .649-.809 1.138-2.259 1.365-.534.083-1.027.238-1.097.344s-1.099.377-2.287.602c-2.6.492-2.916.697-1.075.697.767 0 1.373.098 1.373.222 0 .123.345.223.767.223 1.15 0 1.136.334-.043 1.013-.582.335-3.024 1.894-5.428 3.465-5.579 3.645-7.59 4.863-9.539 5.777-.863.406-1.57.82-1.57.92 0 .612 5.509.141 11.025-.942 4.76-.934 7.562-1.324 9.354-1.304l1.559.018-1.559.734c-.858.403-3.351 1.357-5.542 2.12-7.309 2.545-7.278 2.558 1.867.789 3.981-.77 8.391-1.517 9.8-1.66 9.916-1.008 28.241-6.527 39.421-11.871 3.113-1.489 4.53-1.959 10.579-3.508 9.658-2.474 13.587-4.601 14.014-7.587.343-2.4.291-3.674-.17-4.183-.402-.444-.394-.463.501-1.055 1.055-.698 1.043-.625.479-2.828-.83-3.245-1.696-4.157-3.007-3.165-.589.445-1.178.411-1.442-.084-.288-.537 1.248-2.137 1.836-1.911.216.083.372.034.372-.117 0-3.07-3.614-6.073-5.753-4.779m207.759 38.733c-2.157.489-2.151.485-1.582 1.091.629.668.346.8-1.723.805-4.553.01-3.488 2.208 4.194 8.655 7.453 6.254 14.37 10.199 32.969 18.797 2.514 1.163 6.509 3.084 8.877 4.269 4.857 2.432 4.719 2.414 4.029.521-3.316-9.101-11.86-19.133-19.643-23.065-1.629-.823-5.166-2.944-7.86-4.712-9.43-6.193-13.733-7.614-19.261-6.361m-181.988 15.452c-.597.598-.866 1.062-.869 1.504-.003.55-.416.968-2.97 3.018-16.371 13.137-33.389 31.598-53.107 57.609-3.511 4.631-3.81 5.156-2.938 5.156 1.218 0 .25 1.103-4.181 4.763-2.732 2.257-5.118 4.721-4.841 4.998.046.046 3.76-2.387 8.254-5.406 4.494-3.02 8.206-5.455 8.249-5.411.464.464-1.95 3.891-5.019 7.125-3.11 3.278-2.21 2.617 2.296-1.684 2.222-2.12 4.384-4.095 4.805-4.388.422-.293 1.373-1.074 2.114-1.736 1.575-1.404 2.733-2.047 3.69-2.047.652 0 .482.221-3.443 4.493-3.726 4.054-5.309 6.042-3.405 4.277.398-.369 2.026-1.815 3.619-3.213 4.372-3.839 10.266-9.252 16.699-15.339 5.295-5.01 10.055-9.631 30.406-29.515 3.858-3.77 7.378-7.087 7.823-7.372 2.193-1.406 2.309-2.872.468-5.919-1.664-2.755-1.879-3.732-1.122-5.089l.592-1.061-1.117-1.756c-2.5-3.928-4.22-4.789-6.003-3.007m12.053 3.971c0 .401 3.53 3.063 5.385 4.061 1.229.661 5.393 2.239 5.909 2.239.381 0-.372-.673-2.663-2.381-2.651-1.976-2.761-2.033-3.863-1.998-1.047.034-1.233-.045-2.42-1.021-1.127-.928-2.348-1.396-2.348-.9m110.357 11.671c-1.216.278-1.535.407-1.38.562.189.19 2.382-.371 2.382-.61 0-.11-.025-.19-.056-.178-.03.013-.456.114-.946.226m8.686 8.377c-2.697.183-5.625 1.019-8.129 2.322-2.662 1.384-2.642 1.359-1.813 2.304.384.437.699.884.699.992 0 .45-.291.902-.581.902-.414 0-.412.009.374 1.731 2.073 4.546 4.235 10.223 8.119 21.32 7.251 20.721 10.303 27.619 16.055 36.299l.866 1.306.152-2.321c.734-11.219-1.609-30.01-5.957-47.768l-.385-1.57.615-1.37c.368-.819.637-1.844.67-2.55.03-.649.131-1.792.225-2.539.191-1.526-.21-2.093-1.481-2.093-.673 0-.696-.086-.976-3.599l-.136-1.706-1.087-.468c-2.078-.893-4.862-1.353-7.23-1.192m-76.389 5.529c-2.627 1.676-2.536 1.511-1.72 3.125l.647 1.28-1.716 3.582c-8.166 17.051-14.058 32.632-27.613 73.026-8.764 26.116-8.375 24.721-7.025 25.239.762.293 3.75-2.27 5.705-4.893 3.717-4.988 3.938-5.413 8.857-17.072 14.052-33.306 20.958-47.136 31.168-62.417 1.671-2.501 1.971-2.839 2.516-2.839.34 0 .866-.094 1.168-.209.558-.212.651-.416 1.369-2.987.328-1.178.447-1.338 1.239-1.67 1.135-.477 1.147-.441-.706-2.243-1.504-1.462-1.58-1.584-1.443-2.314.263-1.399-4.36-6.891-8.119-9.645-2.216-1.624-1.718-1.628-4.327.037" fill="#fc6404" fill-rule="evenodd"/></svg>